<?xml version="1.0" encoding="utf-8"?>
<svg xmlns:xlink="http://www.w3.org/1999/xlink" enable-background="new 0 0 480 800" height="800px" id="Layer_1" version="1.1" viewBox="0 0 480 800"
	 width="480px" x="0px" xmlns="http://www.w3.org/2000/svg" y="0px" xml:space="preserve">
<g>
	<g>
		<path clip-rule="evenodd" d="M34.599,473.249c-1.405-0.005-2.811-0.01-4.216-0.014
			c0.441-1.589,0.396-3.245,0.684-4.855l-0.016,0.019c0.423-1.134,0.326-2.344,0.52-3.512c0.083-0.502-0.253-0.615-0.662-0.602
			c-1.159,0.038-2.319,0.077-3.478,0.129c-2.598,0.117-5.188,0.483-7.795,0.328c-2.421-0.144-3.435-2.04-2.185-4.062
			c0.188-0.303,0.158-0.602,0.18-0.918c0.309-4.563,1.33-9.021,2.064-13.521c0.708-4.342,1.419-8.678,1.752-13.068
			c0.275-3.63,0.689-7.252,0.859-10.887c0.102-2.172,0.957-4.182,1.061-6.328c0.041-0.841,0.049-1.683,0.258-2.501
			c1.24-4.856,1.495-9.869,2.342-14.791c0.854-4.958,1.758-9.918,2.28-14.934c0.152-1.463,0.452-2.96,0.996-4.316
			c0.396-0.987,0.544-1.718-0.062-2.633c-0.48-0.725-0.488-1.463,0.611-1.726c0.147-0.036,0.31-0.117,0.409-0.227
			c1.038-1.15,1.862-1.463,3.092-0.713c0.887,0.541,1.695,0.513,2.597,0.385c0.515-0.073,1.028-0.169,1.545-0.224
			c4.128-0.436,4.134-0.432,4.701-4.553c0.107-0.781,0.528-1.565,1.186-1.625c1.987-0.181,3.971-0.759,5.968-0.456
			c1.808,0.275,3.512-0.055,5.188-0.568c1.229-0.376,2.457-0.364,3.68-0.26c0.976,0.083,1.708,0.631,1.852,1.736
			c0.088,0.673,0.252,1.337,0.384,2.004c0.323,1.639,0.341,1.648,2.071,1.57c3.715-0.167,7.43-0.339,11.146-0.492
			c1.762-0.073,1.748-0.056,1.749-1.799c0.001-1.107,0.075-2.142,1.485-2.496c1.371-0.344,2.772-0.336,4.151-0.558
			c2.408-0.386,4.875-0.209,7.269-0.753c1.593-0.074,3.186-0.143,4.776,0.039c0.214,1.343,0.458,2.683,0.63,4.032
			c0.077,0.604,0.323,0.818,0.923,0.812c1.514-0.016,3.027-0.078,4.539,0.176c0.542,0.091,1.109,0.129,1.687-0.311
			c1.724-1.313,3.676-0.574,4.176,1.513c0.195,0.815,0.373,1.644,0.451,2.476c0.324,3.458,0.804,6.897,1.115,10.357
			c0.392,4.354,1.092,8.681,1.548,13.03c0.487,4.654,0.735,9.335,1.288,13.979c0.732,6.148,1.546,12.287,2.1,18.455
			c0.247,2.748,0.357,5.514,0.735,8.242c0.604,4.367,0.721,8.81,1.894,13.088c0.362,1.323,0.249,2.681,0.575,4.017
			c0.397,1.631,0.914,3.233,1.232,4.885c0.17,0.886-0.169,1.414-0.956,1.83c-1.138,0.602-2.176,0.108-3.179-0.246
			c-0.484-0.171-0.674-0.117-0.82,0.257c-0.332,0.854-1.016,0.952-1.774,0.871c-2.105-0.225-4.231-0.084-6.335-0.41
			c-0.618-0.096-1.643-0.504-1.534,0.893c0.238,3.072,0.444,6.146,0.663,9.22c-1.548,0.006-3.097,0.011-4.645,0.017
			c-0.376-3.504-0.606-7.019-0.746-10.538c-0.025-0.635-0.235-0.832-0.848-0.815c-3.325,0.087-6.651,0.16-9.977,0.206
			c-0.623,0.009-0.685,0.236-0.648,0.801c0.224,3.438,0.397,6.878,0.587,10.317c-5.924,0.015-11.849,0.042-17.773,0.041
			c-6.605-0.001-13.21-0.026-19.815-0.042c0.039-0.277,0.056-0.56,0.119-0.832c0.651-2.79,1.312-5.579,1.965-8.369
			c0.102-0.437,0.291-0.818-0.528-0.792c-4.165,0.13-8.327,0.303-12.486,0.556c-0.592,0.035-0.789,0.237-0.942,0.803
			C35.49,467.435,35.079,470.347,34.599,473.249z M105.608,419.239c-0.661,0.687-1.184,1.398-2.124,0.959
			c-1.226-0.571-1.723,0.195-2.285,1.042c-1.366,2.057-2.088,4.432-3.469,6.514c-2.065,3.117-4.828,5.394-7.845,7.393
			c-2.445,1.619-5.288,2.311-8.143,3.001c-3.256,0.787-6.562,0.948-9.85,1.187c-3.312,0.24-6.658,0.224-9.985-0.035
			c-5.931-0.462-11.747-1.218-16.842-4.772c-3.5-2.442-6.547-5.206-8.368-9.14c-0.757-1.636-0.845-1.652-2.025-0.317
			c-0.848,0.96-1.552,1.069-2.339,0.364c-0.885-0.793-1.216-2.854-0.497-3.788c0.726-0.945,1.492-1.88,2.577-2.477
			c0.798-0.439,1.593-0.882,2.171-1.635c0.532-0.694,1.297-0.471,1.634,0.037c0.572,0.862,1.317,1.79,0.791,2.981
			c-0.74,1.672,0.017,3.058,0.894,4.371c1.255,1.879,3.049,3.261,4.758,4.668c3.487,2.874,7.638,4.346,12.071,4.847
			c7.028,0.793,14.073,0.776,21.111-0.028c4.395-0.502,8.667-1.581,12.189-4.27c3.567-2.723,6.441-6.156,7.887-10.572
			c0.183-0.557,0.114-0.719-0.432-0.745c-1.126-0.057-2.219-0.261-3.274-0.681c-0.885-0.352-1.544-1.838-1.292-3.049
			c0.243-1.165,1.097-1.181,2.047-1.111c2.477,0.178,4.885,0.769,7.306,1.25c1.257,0.251,2.88,0.209,2.959,2.16
			c0.32-0.149,0.292-0.308,0.276-0.462c-0.295-2.847-0.599-5.691-0.882-8.538c-0.617-6.221-1.233-12.441-1.831-18.663
			c-0.417-4.347-0.834-8.694-1.185-13.047c-0.082-1.013-0.463-1.415-1.459-1.392c-1.037,0.025-2.076-0.028-3.113-0.069
			c-6.484-0.252-12.966,0.008-19.438,0.279c-2.27,0.095-4.551,0.137-6.822,0.305c-1.598,0.118-3.197,0.25-4.798,0.293
			c-3.708,0.101-7.414,0.223-11.113,0.516c-2.875,0.228-5.752,0.428-8.624,0.691c-3.62,0.332-7.239,0.69-10.792,1.509
			c-1,0.23-1.624,0.65-1.854,1.839c-1.415,7.323-2.337,14.721-3.517,22.08c-0.599,3.732-1.338,7.442-1.984,11.168
			c-0.765,4.418-1.255,8.868-1.52,13.346c-0.287,4.838-0.832,9.645-1.547,14.443c-0.495,3.319-0.814,6.672-1.731,9.903
			c-0.737,2.594-0.979,5.243-1.332,7.887c-0.096,0.719-0.149,1.135,0.91,1.065c1.595-0.104,3.198-0.236,4.794-0.27
			c7.834-0.164,15.648-0.72,23.473-1.065c5.384-0.237,10.778-0.257,16.168-0.364c2.76-0.056,5.535,0.07,8.276-0.183
			c2.668-0.247,5.326-0.066,7.982-0.1c2.134-0.027,4.294,0.107,6.434,0.103c2.392-0.006,4.778,0.093,7.167,0.129
			c2.034,0.031,4.068,0.08,6.102,0.16c2.481,0.098,4.982-0.073,7.376,0.482C108.516,446.126,107.382,432.668,105.608,419.239z
			 M53.917,462.875c1.176,0.491,0.68,1.185,0.57,1.742c-0.463,2.352-0.976,4.692-1.481,7.035c-0.197,0.91,0.059,1.243,1.046,1.059
			c1.532-0.286,3.079-0.563,4.631-0.663c7.037-0.455,14.078-0.855,21.119-1.247c0.75-0.041,1.038-0.179,0.953-1.047
			c-0.197-2.029-0.373-4.079-0.292-6.11c0.038-0.92-0.096-1.043-0.915-1.016c-3.365,0.111-6.73,0.212-10.097,0.237
			C64.398,462.903,59.345,462.875,53.917,462.875z M50.656,370.674c-1.354-0.003-2.474-0.129-3.591,0.061
			c-1.181,0.201-0.942,1.219-0.942,1.913c0,0.762,0.772,0.376,1.145,0.336c2.711-0.292,5.451,0.006,8.15-0.414
			c0.404-0.063,1.269,0.283,1.035-0.6c-0.188-0.706,0.227-2.168-1.396-1.737C53.53,370.638,51.972,370.591,50.656,370.674z
			 M84.138,371.134c0-0.008,0-0.015,0-0.023c1.364,0,2.728-0.006,4.091,0.003c0.694,0.005,0.941-0.379,0.858-0.997
			c-0.058-0.425,0.121-1.078-0.668-1.018c-2.697,0.208-5.394,0.427-8.089,0.653c-0.499,0.042-0.641,0.38-0.635,0.846
			c0.007,0.522,0.312,0.547,0.717,0.542C81.654,371.124,82.896,371.134,84.138,371.134z" fill="#290200" fill-rule="evenodd"/>
		<path clip-rule="evenodd" d="M294.426,445.77c0-10.431,0.012-20.86-0.021-31.29
			c-0.003-0.919,0.189-1.204,1.165-1.201c10.51,0.038,21.02-0.033,31.529,0.046c6.103,0.047,12.035,1.006,17.369,4.268
			c3.927,2.401,6.987,5.601,9.437,9.532c2.962,4.757,3.921,9.949,4.066,15.384c0.149,5.547-0.288,11.038-2.136,16.322
			c-1.52,4.35-4.234,7.951-7.522,11.077c-5.488,5.219-12.319,7.328-19.672,8.157c-2.438,0.275-4.874,0.264-7.313,0.266
			c-8.625,0.008-17.249-0.01-25.874,0.023c-0.846,0.003-1.05-0.219-1.048-1.055C294.437,466.789,294.426,456.279,294.426,445.77z
			 M306.083,445.885c0,7.622,0.026,15.243-0.028,22.865c-0.009,1.103,0.319,1.313,1.344,1.295c3.568-0.063,7.14-0.04,10.709-0.02
			c3.456,0.02,6.903-0.1,10.276-0.911c7.324-1.762,12.851-5.794,15.649-12.965c1.971-5.051,2.438-10.357,1.936-15.735
			c-0.444-4.761-1.868-9.074-5.338-12.638c-3.425-3.515-7.54-5.43-12.315-5.805c-7.124-0.559-14.272-0.114-21.409-0.251
			c-1.023-0.02-0.82,0.609-0.821,1.18C306.082,430.562,306.083,438.224,306.083,445.885z" fill="#1C1D21" fill-rule="evenodd"/>
		<path clip-rule="evenodd" d="M397.286,490.258c2.503,0.701,4.888,1.509,7.334,2.027
			c5.927,1.257,11.911,2.07,17.959,0.949c5-0.926,8.032-4.149,8.859-9.156c0.606-3.666,0.212-7.359,0.319-11.039
			c0.028-0.959,0.004-1.92,0.004-2.884c-0.134,0-0.255-0.028-0.273,0.004c-3.328,5.604-8.57,8.127-14.756,8.888
			c-5.903,0.726-11.46-0.314-16.442-3.843c-1.461-1.035-2.761-2.181-3.812-3.588c-2.941-3.938-4.775-8.277-5.113-13.273
			c-0.282-4.17-0.038-8.268,1.347-12.178c1.364-3.852,3.37-7.444,6.519-10.155c3.961-3.412,8.636-5.384,13.78-6.33
			c6.056-1.113,12.091-0.584,18.163-0.162c3.679,0.256,7.298,0.818,10.941,1.263c0.771,0.094,1.07,0.295,1.068,1.154
			c-0.029,17.293-0.002,34.586-0.049,51.879c-0.006,2.394-0.41,4.777-1.293,7.037c-1.722,4.408-5.135,7.011-9.395,8.647
			c-5.633,2.164-11.517,2.107-17.414,1.856c-5.24-0.223-10.416-0.912-15.535-2.068c-0.899-0.203-1.35-0.525-1.431-1.489
			C397.855,495.302,397.557,492.814,397.286,490.258z M431.763,448.378c0-3.564-0.027-6.571,0.02-9.577
			c0.013-0.756-0.256-1.037-0.953-1.195c-4.346-0.988-8.735-1.308-13.12-0.482c-6.94,1.307-12.119,4.85-14.133,11.979
			c-1.028,3.639-1.099,7.353-0.348,11.071c1.278,6.329,5.786,10.997,12.603,11.254c3.126,0.118,6.201-0.098,8.852-1.997
			c3.72-2.665,5.896-6.339,6.717-10.812C432.056,455.042,431.646,451.42,431.763,448.378z" fill="#1D1E22" fill-rule="evenodd"/>
		<path clip-rule="evenodd" d="M101.998,473.234c-0.219-3.073-0.425-6.147-0.663-9.22
			c-0.108-1.396,0.916-0.988,1.534-0.893c2.104,0.326,4.23,0.186,6.335,0.41c0.758,0.081,1.442-0.018,1.774-0.871
			c0.146-0.374,0.336-0.428,0.82-0.257c1.003,0.354,2.042,0.848,3.179,0.246c0.787-0.416,1.126-0.944,0.956-1.83
			c-0.318-1.651-0.834-3.254-1.232-4.885c-0.326-1.336-0.212-2.693-0.575-4.017c-1.172-4.278-1.29-8.721-1.894-13.088
			c-0.378-2.729-0.489-5.494-0.735-8.242c-0.554-6.168-1.368-12.307-2.1-18.455c-0.553-4.645-0.801-9.325-1.288-13.979
			c-0.456-4.35-1.157-8.676-1.548-13.03c-0.311-3.46-0.791-6.9-1.115-10.357c-0.078-0.832-0.256-1.661-0.451-2.476
			c-0.5-2.087-2.452-2.827-4.176-1.513c-0.578,0.44-1.145,0.402-1.687,0.311c-1.512-0.254-3.025-0.192-4.539-0.176
			c-0.6,0.006-0.846-0.208-0.923-0.812c-0.172-1.349-0.416-2.688-0.63-4.032c0.316-0.031,0.633-0.089,0.95-0.089
			c5.657-0.005,11.315-0.071,16.97,0.014c6.418,0.097,12.597,4.719,13.84,11.325c0.213,1.134,0.298,2.307,0.299,3.462
			c0.017,25.917,0.012,51.834,0.014,77.751c0,3.692-0.929,7.098-3.469,9.843c-2.913,3.148-6.557,4.921-10.906,5.006
			c-2.687,0.053-5.376,0.011-8.064,0.008C102.441,473.387,102.19,473.434,101.998,473.234z" fill="#D7012C" fill-rule="evenodd"/>
		<path clip-rule="evenodd" d="M144.5,445.767c0-10.431,0.014-20.861-0.023-31.293
			c-0.003-0.954,0.24-1.197,1.189-1.194c9.388,0.036,18.776,0,28.164,0.032c4.438,0.015,8.714,0.817,12.296,3.632
			c3.247,2.552,4.638,6.185,5.505,10.118c0.388,1.762,0.695,3.522,0.429,5.262c-0.774,5.076-2.506,9.691-6.931,12.83
			c-0.684,0.485-1.272,1.104-1.938,1.617c-2.796,2.155-6.118,2.863-9.499,3.352c-4.005,0.578-7.979-0.021-11.958-0.407
			c-0.557-0.054-0.604-0.406-0.714-0.793c-0.385-1.346-0.82-2.678-1.155-4.035c-0.172-0.699-0.577-1.271-0.83-1.923
			c-0.292-0.752-0.022-0.907,0.667-0.847c1.911,0.168,3.832,0.252,5.734,0.484c5.677,0.693,10.178-1.348,13.594-5.834
			c0.887-1.164,1.083-2.669,1.217-4.095c0.119-1.27,0.044-2.564-0.022-3.844c-0.254-4.904-5.059-7.432-8.524-7.428
			c-4.895,0.006-9.789,0.018-14.684-0.018c-0.751-0.005-0.82,0.302-0.817,0.918c0.021,4.693,0.011,9.388,0.011,14.081
			c0,13.561-0.015,27.121,0.028,40.681c0.003,1.074-0.268,1.324-1.31,1.3c-3.087-0.074-6.178-0.063-9.267-0.005
			c-0.933,0.018-1.19-0.222-1.187-1.179C144.514,466.709,144.5,456.237,144.5,445.767z" fill="#1D1E22" fill-rule="evenodd"/>
		<path clip-rule="evenodd" d="M31.066,468.38c-0.288,1.61-0.242,3.267-0.684,4.855
			c-5.279,0.594-9.702-0.989-13.339-4.951c-2.477-2.698-3.471-5.823-3.47-9.388c0.006-26.389,0.002-52.777,0.004-79.166
			c0-2.683,0.723-5.214,2.311-7.328c3.059-4.073,7.124-6.437,12.354-6.438c19.611-0.003,39.222-0.001,58.833,0.002
			c0.397,0,0.794,0.041,1.19,0.063c-2.394,0.544-4.862,0.367-7.27,0.753c-1.379,0.221-2.78,0.214-4.151,0.558
			c-1.41,0.354-1.484,1.389-1.485,2.496c-0.001,1.744,0.013,1.726-1.749,1.799c-3.716,0.153-7.431,0.325-11.146,0.492
			c-1.73,0.078-1.748,0.068-2.071-1.57c-0.132-0.667-0.296-1.331-0.384-2.004c-0.144-1.105-0.876-1.653-1.852-1.736
			c-1.223-0.104-2.451-0.116-3.68,0.26c-1.676,0.513-3.38,0.843-5.188,0.568c-1.997-0.304-3.981,0.274-5.968,0.456
			c-0.658,0.06-1.079,0.845-1.186,1.625c-0.567,4.121-0.573,4.117-4.701,4.553c-0.517,0.055-1.03,0.151-1.545,0.224
			c-0.901,0.127-1.71,0.155-2.597-0.385c-1.23-0.75-2.054-0.437-3.092,0.713c-0.1,0.11-0.262,0.191-0.409,0.227
			c-1.099,0.263-1.091,1.001-0.611,1.726c0.606,0.916,0.458,1.646,0.062,2.633c-0.544,1.356-0.844,2.853-0.996,4.316
			c-0.522,5.016-1.427,9.976-2.28,14.934c-0.847,4.922-1.103,9.935-2.342,14.791c-0.209,0.818-0.217,1.66-0.258,2.501
			c-0.104,2.146-0.959,4.156-1.061,6.328c-0.17,3.635-0.583,7.257-0.859,10.887c-0.333,4.391-1.044,8.727-1.752,13.068
			c-0.734,4.499-1.756,8.957-2.064,13.521c-0.021,0.316,0.008,0.615-0.18,0.918c-1.25,2.021-0.236,3.918,2.185,4.062
			c2.607,0.155,5.197-0.211,7.795-0.328c1.159-0.052,2.318-0.091,3.478-0.129c0.408-0.014,0.745,0.1,0.662,0.602
			c-0.194,1.168-0.097,2.378-0.52,3.512c-0.029-0.016-0.058-0.031-0.087-0.047C30.998,468.361,31.032,468.37,31.066,468.38z" fill="#D7022C" fill-rule="evenodd"/>
		<path clip-rule="evenodd" d="M264.907,471.565c-0.643,2.314-0.938,4.521-1.854,6.564
			c-0.14,0.312-0.292,0.504-0.684,0.551c-6.246,0.751-12.492,1.361-18.705-0.225c-1.568-0.399-2.933-1.193-4.171-2.279
			c-2.496-2.188-4.493-4.616-4.896-8.074c-0.345-2.958-0.408-5.915,1.284-8.479c1.934-2.931,4.738-4.886,7.976-6.243
			c5.53-2.316,11.48-3.084,17.189-4.735c1.995-0.577,3.973-1.202,5.786-2.271c2.089-1.231,3.013-3.016,2.776-5.415
			c-0.214-2.175-1.458-3.617-3.391-4.435c-2.741-1.159-5.648-1.44-8.592-1.244c-4.634,0.31-9.198,1.039-13.614,2.527
			c-1.279,0.432-2.521,0.975-3.964,1.538c0.338-2.536,0.652-4.951,0.986-7.363c0.094-0.673,0.737-0.539,1.145-0.629
			c3.159-0.694,6.34-1.28,9.541-1.745c3.729-0.543,7.485-0.792,11.244-0.626c4.73,0.209,9.437,0.746,13.576,3.324
			c2.278,1.419,3.556,3.643,4.14,6.245c0.192,0.857,0.294,1.729,0.294,2.62c-0.012,11.993-0.017,23.987,0.011,35.98
			c0.002,0.892-0.15,1.235-1.148,1.207c-2.806-0.077-5.616-0.064-8.423-0.004c-0.891,0.019-1.13-0.201-1.125-1.113
			c0.04-8.022,0.026-16.045,0.01-24.067c0-0.354,0.269-0.849-0.201-1.061c-0.383-0.173-0.656,0.223-0.929,0.435
			c-1.627,1.267-3.597,1.739-5.506,2.293c-4.563,1.324-9.13,2.587-13.497,4.523c-4.453,1.974-6.144,7.205-3.329,10.825
			c1.565,2.013,3.853,2.481,6.175,2.771C257.089,473.47,259.204,473.192,264.907,471.565z" fill="#1C1D21" fill-rule="evenodd"/>
		<path clip-rule="evenodd" d="M211.67,436.743c0.693-0.929,1.24-1.703,1.829-2.442
			c3.499-4.395,8.193-5.75,13.566-5.192c2.415,0.251,2.453,0.346,2.738,2.616c0.278,2.213,0.441,4.439,0.667,6.785
			c-1.979-0.339-3.782-0.939-5.71-0.919c-5.874,0.063-9.851,2.888-11.699,8.46c-0.711,2.145-0.997,4.355-0.997,6.608
			c0.001,8.142-0.017,16.282,0.023,24.424c0.005,0.958-0.163,1.305-1.213,1.278c-3.085-0.078-6.175-0.053-9.263-0.011
			c-0.743,0.01-0.935-0.194-0.934-0.937c0.022-15.48,0.022-30.96,0-46.44c-0.001-0.732,0.174-0.952,0.926-0.941
			c3.087,0.044,6.176,0.032,9.264,0.009c0.711-0.006,0.906,0.11,0.843,0.94C211.576,432.81,211.67,434.654,211.67,436.743z" fill="#1C1D21" fill-rule="evenodd"/>
		<path clip-rule="evenodd" d="M369.052,454.433c0-7.617,0.017-15.234-0.023-22.852
			c-0.005-0.9,0.21-1.146,1.116-1.127c2.965,0.062,5.934,0.055,8.898,0.003c0.854-0.015,1.055,0.246,1.054,1.076
			c-0.024,15.234-0.027,30.469,0.005,45.703c0.002,0.925-0.253,1.135-1.138,1.118c-2.966-0.056-5.935-0.058-8.899,0.002
			c-0.873,0.017-1.035-0.259-1.032-1.073C369.064,469.667,369.052,462.05,369.052,454.433z" fill="#1C1D21" fill-rule="evenodd"/>
		<path clip-rule="evenodd" d="M457.321,454.303c0-7.499,0.028-14.999-0.031-22.498
			c-0.009-1.151,0.353-1.369,1.4-1.346c2.927,0.066,5.855,0.043,8.782,0.01c0.722-0.009,1.032,0.096,1.03,0.95
			c-0.029,15.32-0.028,30.64-0.002,45.96c0.001,0.817-0.253,0.98-1.009,0.971c-3.047-0.041-6.097-0.05-9.144,0.004
			c-0.858,0.016-1.051-0.242-1.047-1.071C457.334,469.623,457.321,461.963,457.321,454.303z" fill="#1B1C20" fill-rule="evenodd"/>
		<path clip-rule="evenodd" d="M276.9,493.242c-0.609,0.396-0.82,0.915-1.006,1.472
			c-1.518,4.552-3.103,9.082-4.532,13.661c-0.377,1.209-1.132,0.951-1.92,0.98c-0.768,0.028-1.388,0.077-1.712-0.966
			c-1.232-3.971-2.554-7.915-3.94-11.835c-0.373-1.054-0.991-2.032-1.273-3.17c-0.53,0.248-0.313,0.614-0.314,0.877
			c-0.015,4.692-0.049,9.386,0.022,14.077c0.016,1.045-0.444,1.074-1.199,1.022c-0.67-0.046-1.384,0.254-1.37-0.981
			c0.064-5.936,0.04-11.871,0.015-17.808c-0.003-0.708,0.147-0.955,0.92-0.962c3.139-0.026,3.139-0.057,4.143,2.92
			c1.418,4.205,2.831,8.411,4.263,12.611c0.11,0.325,0.099,0.732,0.463,0.948c0.464-0.431,0.718-0.963,0.917-1.563
			c1.553-4.666,3.153-9.316,4.686-13.99c0.23-0.703,0.523-0.923,1.255-0.923c3.036,0.002,3.036-0.024,3.036,3.045
			c0,5.214-0.044,10.429,0.033,15.642c0.018,1.156-0.539,1.069-1.299,1.066c-0.742-0.004-1.333,0.135-1.306-1.046
			c0.11-4.688,0.091-9.38,0.119-14.069C276.901,493.942,276.9,493.634,276.9,493.242z" fill="#1D1E22" fill-rule="evenodd"/>
		<path clip-rule="evenodd" d="M335.924,507.094c-1.725,1.479-3.613,2.626-5.921,2.835
			c-2.384,0.217-4.645-0.164-6.543-1.732c-4.351-3.594-5.423-10.496-2.099-15.104c2.904-4.027,7.812-5.284,12.712-2.816
			c2.523,1.271,3.603,2.845,3.842,5.199c-0.038,0.015-0.074,0.034-0.113,0.041c-1.308,0.237-2.354,0.048-3.107-1.28
			c-1.64-2.895-4.414-3.166-7.24-2.575c-2.89,0.604-4.212,2.868-4.753,5.591c-0.41,2.068-0.233,4.123,0.344,6.165
			c1.519,5.376,8.725,5.168,11.201,2.292c0.997-1.158,1.499-2.368,1.632-3.829c0.058-0.642-0.155-0.836-0.79-0.821
			c-1.604,0.038-3.211-0.046-4.812,0.033c-1.101,0.056-0.849-0.644-0.878-1.249c-0.032-0.645-0.054-1.138,0.896-1.11
			c2.404,0.069,4.812,0.045,7.218,0.009c0.642-0.01,0.813,0.197,0.809,0.816c-0.027,3.008-0.014,6.016-0.012,9.023
			c0.001,0.405,0.061,0.871-0.572,0.768c-0.441-0.072-1.047,0.322-1.242-0.526C336.366,508.263,336.373,507.63,335.924,507.094z" fill="#222326" fill-rule="evenodd"/>
		<path clip-rule="evenodd" d="M179.829,499.687c2.535,0.967,2.159,3.134,2.385,5.027
			c0.071,0.594,0.022,1.201,0.025,1.802c0.004,1.003,0.157,1.954,1.29,2.84c-1.258,0-2.159-0.006-3.06,0.002
			c-0.594,0.005-0.599-0.471-0.632-0.836c-0.124-1.351-0.38-2.723-0.257-4.057c0.218-2.361-1.701-3.54-3.542-3.576
			c-2.003-0.038-4.008,0.025-6.01-0.027c-0.773-0.02-1.032,0.174-1.011,0.985c0.058,2.202-0.017,4.408,0.04,6.611
			c0.02,0.769-0.226,0.928-0.945,0.918c-1.752-0.022-1.753,0.016-1.753-1.77c0-5.61,0.028-11.221-0.026-16.831
			c-0.009-0.986,0.292-1.186,1.206-1.167c2.804,0.057,5.61,0.031,8.415,0.016c1.252-0.008,2.488,0.149,3.635,0.617
			c3.369,1.377,4.036,6.312,1.208,8.703C180.554,499.15,180.292,499.333,179.829,499.687z M172.929,498.495
			c1.281,0,2.57,0.094,3.839-0.023c1.515-0.141,2.61-1.108,2.859-2.284c0.539-2.543-0.658-4.12-3.283-4.24
			c-1.479-0.068-2.964-0.037-4.446-0.04c-2.862-0.004-2.879-0.001-2.855,2.828c0.01,1.233-0.522,2.86,0.195,3.598
			C170.02,499.137,171.666,498.472,172.929,498.495z" fill="#222326" fill-rule="evenodd"/>
		<path clip-rule="evenodd" d="M291.869,499.527c0-2.967-0.005-5.934,0.005-8.899
			c0.002-0.439-0.194-1.013,0.62-1.005c2.966,0.028,5.943-0.121,8.896,0.086c3.269,0.229,5.474,2.139,6.541,5.207
			c1.208,3.474,1.021,6.94-0.586,10.258c-1.325,2.735-3.611,4.111-6.636,4.171c-2.645,0.053-5.292-0.017-7.937,0.032
			c-0.763,0.015-0.932-0.224-0.922-0.949C291.894,505.462,291.869,502.494,291.869,499.527z M294.492,499.568
			c0,1.122,0,2.243,0,3.365c0,1.121,0.025,2.244-0.011,3.364c-0.02,0.592,0.11,0.869,0.785,0.849
			c1.601-0.047,3.206,0.026,4.806-0.033c2.726-0.101,4.401-1.355,5.261-3.947c0.805-2.426,0.809-4.895,0.056-7.328
			c-0.76-2.455-2.445-3.742-5.048-3.878c-1.638-0.085-3.284-0.007-4.924-0.069c-0.744-0.028-0.958,0.207-0.942,0.948
			C294.521,495.081,294.492,497.325,294.492,499.568z" fill="#222326" fill-rule="evenodd"/>
		<path clip-rule="evenodd" d="M34.599,473.249c0.479-2.902,0.891-5.814,1.662-8.663
			c0.153-0.565,0.351-0.768,0.942-0.803c4.159-0.253,8.321-0.426,12.486-0.556c0.819-0.026,0.63,0.355,0.528,0.792
			c-0.653,2.79-1.314,5.579-1.965,8.369c-0.063,0.272-0.081,0.555-0.119,0.832c-0.034,0.021-0.066,0.061-0.101,0.062
			C43.554,473.434,39.076,473.507,34.599,473.249z" fill="#D7022C" fill-rule="evenodd"/>
		<path clip-rule="evenodd" d="M456.983,419.332c0-1.601,0.023-3.202-0.011-4.802
			c-0.015-0.639,0.127-0.945,0.849-0.939c3.281,0.028,6.563,0.024,9.845,0.002c0.61-0.005,0.835,0.169,0.83,0.811
			c-0.028,3.281-0.024,6.563-0.003,9.845c0.004,0.584-0.207,0.754-0.768,0.751c-3.321-0.019-6.643-0.023-9.964,0.002
			c-0.668,0.005-0.798-0.281-0.788-0.867C457.002,422.533,456.983,420.933,456.983,419.332z" fill="#04A7E2" fill-rule="evenodd"/>
		<path clip-rule="evenodd" d="M85.722,473.222c-0.19-3.439-0.363-6.88-0.587-10.317
			c-0.037-0.564,0.025-0.792,0.648-0.801c3.326-0.046,6.651-0.119,9.977-0.206c0.613-0.017,0.822,0.181,0.848,0.815
			c0.14,3.52,0.37,7.034,0.746,10.538c-2.132,0.309-4.277,0.119-6.415,0.118C89.201,473.369,87.45,473.594,85.722,473.222z" fill="#D7022C" fill-rule="evenodd"/>
		<path clip-rule="evenodd" d="M368.773,419.301c0-1.604,0.028-3.208-0.014-4.811
			c-0.018-0.678,0.193-0.902,0.883-0.896c3.166,0.03,6.333,0.031,9.5,0c0.723-0.007,0.966,0.204,0.956,0.953
			c-0.039,3.166-0.037,6.333-0.001,9.5c0.009,0.737-0.208,0.965-0.947,0.956c-3.167-0.035-6.334-0.032-9.501-0.001
			c-0.685,0.006-0.907-0.208-0.889-0.892C368.803,422.508,368.773,420.904,368.773,419.301z" fill="#63B023" fill-rule="evenodd"/>
		<path clip-rule="evenodd" d="M220.013,499.496c0-2.968,0.059-5.937-0.028-8.9
			c-0.037-1.258,0.733-0.93,1.392-0.968c0.715-0.041,1.302-0.091,1.254,0.997c-0.092,2.081-0.003,4.17-0.04,6.254
			c-0.012,0.688,0.11,0.988,0.904,0.975c3.047-0.048,6.095-0.037,9.142-0.004c0.681,0.007,0.893-0.188,0.879-0.876
			c-0.042-2.124,0.024-4.251-0.036-6.375c-0.023-0.817,0.25-1.003,1.017-0.988c1.687,0.033,1.688-0.007,1.688,1.619
			c0,5.694-0.04,11.389,0.033,17.081c0.015,1.146-0.524,1.112-1.29,1.048c-0.67-0.057-1.518,0.35-1.457-0.999
			c0.108-2.401,0.003-4.812,0.047-7.216c0.014-0.751-0.142-1.034-0.969-1.02c-3.006,0.053-6.014,0.046-9.021,0.003
			c-0.74-0.01-0.954,0.187-0.94,0.933c0.047,2.445-0.049,4.894,0.045,7.336c0.049,1.27-0.743,0.932-1.397,0.96
			c-0.671,0.028-1.288,0.174-1.252-0.959C220.075,505.433,220.013,502.463,220.013,499.496z" fill="#222326" fill-rule="evenodd"/>
		<path clip-rule="evenodd" d="M238.999,509.199c1.399-3.73,2.693-7.511,4.238-11.186
			c1.078-2.563,2.143-5.128,3.096-7.739c0.172-0.473,0.417-0.709,0.958-0.657c0.556,0.053,1.123,0.043,1.682,0.003
			c0.484-0.035,0.684,0.191,0.89,0.599c1.003,1.988,1.7,4.094,2.452,6.181c1.341,3.725,2.699,7.442,4.05,11.163
			c0.027,0.075,0.073,0.155,0.067,0.229c-0.047,0.595,1.116,1.142,0.521,1.431c-0.743,0.36-1.796,0.122-2.711,0.067
			c-0.318-0.02-0.278-0.449-0.366-0.697c-0.49-1.396-0.979-2.793-1.422-4.204c-0.179-0.568-0.42-0.84-1.079-0.826
			c-2.244,0.044-4.49,0.045-6.735,0.001c-0.737-0.015-1.057,0.287-1.265,0.946c-0.374,1.181-0.888,2.32-1.213,3.512
			c-0.288,1.051-0.797,1.575-1.925,1.341C239.858,509.284,239.446,509.464,238.999,509.199z M248.001,492.552
			c-1.059,2.91-1.993,5.489-2.938,8.064c-0.19,0.519,0.049,0.62,0.5,0.617c1.642-0.01,3.284-0.012,4.926,0
			c0.486,0.003,0.586-0.118,0.464-0.633c-0.205-0.863-0.799-1.523-1.059-2.354C249.334,496.455,248.714,494.682,248.001,492.552z" fill="#222326" fill-rule="evenodd"/>
		<path clip-rule="evenodd" d="M381.29,509.29c-2.973,0.223-2.966,0.22-3.88-2.45
			c-0.361-1.055-0.483-2.436-1.226-3.052c-0.81-0.671-2.228-0.153-3.379-0.202c-0.761-0.033-1.524-0.007-2.287-0.007
			c-2.562,0-2.568-0.003-3.514,2.426c-0.348,0.894-0.675,1.797-0.973,2.709c-0.141,0.433-0.331,0.627-0.828,0.66
			c-2.169,0.145-2.196,0.125-1.438-1.88c1.005-2.658,1.868-5.381,3.044-7.962c1.371-3.006,2.459-6.112,3.644-9.186
			c0.204-0.53,0.461-0.722,1.039-0.734c2.475-0.055,2.482-0.08,3.331,2.259c1.622,4.476,3.252,8.948,4.838,13.436
			C380.133,506.641,381.068,507.777,381.29,509.29z M368.985,501.23c1.839,0,3.547-0.036,5.253,0.015
			c0.836,0.025,1.016-0.171,0.752-1.001c-0.732-2.304-1.933-4.427-2.548-6.771c-0.063-0.238-0.03-0.564-0.417-0.61
			C371.03,495.603,370.037,498.336,368.985,501.23z" fill="#222326" fill-rule="evenodd"/>
		<path clip-rule="evenodd" d="M147.126,499.567c0-2.968,0.02-5.936-0.015-8.902
			c-0.009-0.729,0.098-1.072,0.957-1.057c2.926,0.056,5.857-0.058,8.781,0.056c2.329,0.09,4.293,0.976,5.187,3.366
			c0.875,2.341,0.278,5.059-1.479,6.627c-1.161,1.035-2.62,1.324-4.112,1.367c-1.843,0.052-3.691,0.068-5.533-0.008
			c-0.935-0.038-1.137,0.277-1.109,1.153c0.065,2.043-0.017,4.091,0.04,6.135c0.022,0.818-0.186,1.103-1.045,1.074
			c-1.67-0.055-1.671-0.003-1.671-1.631C147.126,505.021,147.126,502.294,147.126,499.567z M153.281,498.736
			c0-0.014,0-0.028,0-0.042c1,0,2.005,0.067,2.998-0.014c2.081-0.168,2.935-1.396,3.316-3.016c0.397-1.686-1.312-3.671-3.163-3.698
			c-1.959-0.029-3.919-0.025-5.878-0.069c-0.584-0.014-0.754,0.203-0.745,0.771c0.029,1.76,0.036,3.521-0.003,5.28
			c-0.014,0.649,0.225,0.827,0.835,0.799C151.519,498.704,152.4,498.736,153.281,498.736z" fill="#222326" fill-rule="evenodd"/>
		<path clip-rule="evenodd" d="M201.414,509.357c-0.979,0.327-1.313-0.34-1.65-1.296
			c-0.47-1.328-0.686-2.755-1.531-3.96c-0.277-0.395-0.502-0.529-0.935-0.527c-2.244,0.011-4.488,0.028-6.731-0.011
			c-0.604-0.01-0.842,0.24-1.017,0.758c-0.433,1.287-0.99,2.538-1.34,3.847c-0.271,1.017-0.808,1.258-1.783,1.211
			c-1.644-0.078-1.569,0.016-0.865-1.483c0.644-1.369,1.097-2.829,1.63-4.25c1.403-3.741,2.809-7.481,4.203-11.227
			c0.314-0.844,0.97-1.515,1.172-2.413c0.095-0.425,0.462-0.373,0.778-0.376c0.561-0.005,1.125,0.036,1.682-0.012
			c0.542-0.046,0.787,0.187,0.949,0.676c0.338,1.022,0.683,2.048,1.097,3.042c2.003,4.812,3.776,9.71,5.535,14.614
			C203.115,509.359,203.119,509.357,201.414,509.357z M194.09,492.504c-0.951,2.926-2.004,5.436-3.109,7.924
			c-0.299,0.673-0.037,0.826,0.614,0.813c1.519-0.031,3.04-0.047,4.558,0.004c0.835,0.028,0.784-0.276,0.565-0.905
			C195.854,497.852,195.038,495.347,194.09,492.504z" fill="#222326" fill-rule="evenodd"/>
		<path clip-rule="evenodd" d="M355.863,500.6c0-2.487-0.061-4.977,0.029-7.46
			c0.038-1.054-0.31-1.262-1.271-1.213c-1.601,0.081-3.211-0.038-4.812,0.045c-0.963,0.05-0.917-0.48-0.89-1.116
			c0.025-0.608-0.214-1.26,0.881-1.249c4.974,0.051,9.948,0.047,14.922,0.003c1.053-0.01,0.782,0.647,0.789,1.189
			c0.006,0.553,0.239,1.218-0.803,1.171c-1.682-0.076-3.372,0.043-5.053-0.045c-0.952-0.05-1.103,0.289-1.096,1.148
			c0.041,5.014-0.035,10.029,0.058,15.042c0.024,1.301-0.563,1.217-1.482,1.277c-1.097,0.071-1.332-0.295-1.298-1.333
			C355.918,505.575,355.863,503.087,355.863,500.6z" fill="#222326" fill-rule="evenodd"/>
		<path clip-rule="evenodd" d="M207.576,500.629c0-2.605-0.021-5.213,0.015-7.818
			c0.009-0.678-0.177-0.897-0.87-0.877c-1.683,0.048-3.37-0.033-5.051,0.035c-0.867,0.036-1.127-0.253-1.053-1.083
			c0.06-0.67-0.141-1.298,0.981-1.283c4.851,0.062,9.704,0.064,14.554-0.002c1.108-0.016,0.952,0.568,0.995,1.258
			c0.048,0.774-0.092,1.156-1.011,1.112c-1.64-0.078-3.289,0.028-4.93-0.042c-0.851-0.036-1.062,0.219-1.055,1.059
			c0.041,5.093-0.026,10.186,0.055,15.276c0.02,1.202-0.56,1.083-1.354,1.116c-0.892,0.038-1.355-0.05-1.31-1.174
			C207.646,505.685,207.576,503.155,207.576,500.629z" fill="#222326" fill-rule="evenodd"/>
		<path clip-rule="evenodd" d="M383.965,499.49c0-2.966,0.06-5.933-0.027-8.896
			c-0.037-1.258,0.731-0.934,1.391-0.966c0.7-0.034,1.275-0.11,1.263,0.986c-0.061,5.128-0.003,10.258-0.05,15.388
			c-0.008,0.916,0.251,1.143,1.143,1.124c2.844-0.058,5.691,0.023,8.535-0.046c0.968-0.023,0.988,0.421,0.982,1.147
			c-0.006,0.706,0.018,1.17-0.968,1.154c-3.806-0.062-7.613-0.041-11.42-0.011c-0.68,0.006-0.872-0.187-0.863-0.865
			C383.985,505.502,383.965,502.496,383.965,499.49z" fill="#222326" fill-rule="evenodd"/>
		<path clip-rule="evenodd" d="M315.652,499.581c-0.001,2.921-0.02,5.843,0.014,8.764
			c0.008,0.717-0.088,1.054-0.946,1.035c-1.98-0.044-1.981,0.01-1.981-2.027c0-5.521,0.026-11.044-0.025-16.566
			c-0.009-0.971,0.27-1.301,1.197-1.16c0.273,0.042,0.564,0.041,0.838,0c0.776-0.117,0.927,0.245,0.919,0.951
			C315.632,493.578,315.652,496.58,315.652,499.581z" fill="#1D1E22" fill-rule="evenodd"/>
		<path clip-rule="evenodd" d="M343.179,499.356c0-2.885,0.075-5.771-0.032-8.65
			c-0.053-1.397,0.802-1.015,1.532-1.085c0.862-0.083,1.255,0.087,1.244,1.132c-0.06,5.847-0.044,11.695-0.01,17.543
			c0.004,0.812-0.167,1.111-1.04,1.084c-1.693-0.053-1.694,0.001-1.694-1.732C343.179,504.883,343.179,502.119,343.179,499.356z" fill="#222326" fill-rule="evenodd"/>
		<path clip-rule="evenodd" d="M105.608,419.239c1.774,13.429,2.908,26.887,5.042,40.2
			c-2.395-0.556-4.895-0.385-7.376-0.482c-2.033-0.08-4.067-0.129-6.102-0.16c-2.389-0.036-4.774-0.135-7.167-0.129
			c-2.14,0.005-4.3-0.13-6.434-0.103c-2.656,0.033-5.314-0.147-7.982,0.1c-2.741,0.253-5.516,0.127-8.276,0.183
			c-5.39,0.107-10.784,0.127-16.168,0.364c-7.825,0.346-15.639,0.901-23.473,1.065c-1.596,0.033-3.199,0.165-4.794,0.27
			c-1.059,0.069-1.006-0.347-0.91-1.065c0.354-2.644,0.595-5.293,1.332-7.887c0.917-3.231,1.237-6.584,1.731-9.903
			c0.715-4.799,1.261-9.605,1.547-14.443c0.265-4.478,0.755-8.928,1.52-13.346c0.646-3.726,1.385-7.436,1.984-11.168
			c1.18-7.358,2.102-14.757,3.517-22.08c0.229-1.188,0.854-1.608,1.854-1.839c3.553-0.819,7.172-1.177,10.792-1.509
			c2.872-0.263,5.749-0.464,8.624-0.691c3.699-0.293,7.405-0.415,11.113-0.516c1.601-0.043,3.2-0.176,4.798-0.293
			c2.271-0.168,4.552-0.21,6.822-0.305c6.473-0.271,12.955-0.531,19.438-0.279c1.038,0.041,2.077,0.094,3.113,0.069
			c0.996-0.023,1.377,0.378,1.459,1.392c0.351,4.353,0.768,8.7,1.185,13.047c0.598,6.222,1.214,12.442,1.831,18.663
			c0.283,2.847,0.587,5.691,0.882,8.538c0.016,0.154,0.044,0.313-0.276,0.462c-0.08-1.951-1.702-1.909-2.959-2.16
			c-2.421-0.481-4.829-1.072-7.306-1.25c-0.95-0.069-1.805-0.054-2.047,1.111c-0.252,1.211,0.407,2.697,1.292,3.049
			c1.055,0.42,2.148,0.624,3.274,0.681c0.546,0.026,0.614,0.188,0.432,0.745c-1.445,4.416-4.32,7.85-7.887,10.572
			c-3.523,2.688-7.794,3.768-12.189,4.27c-7.038,0.805-14.083,0.821-21.111,0.028c-4.434-0.501-8.584-1.973-12.071-4.847
			c-1.709-1.407-3.503-2.789-4.758-4.668c-0.877-1.313-1.634-2.699-0.894-4.371c0.527-1.191-0.219-2.119-0.791-2.981
			c-0.336-0.508-1.102-0.731-1.634-0.037c-0.578,0.753-1.373,1.195-2.171,1.635c-1.084,0.597-1.851,1.531-2.577,2.477
			c-0.719,0.935-0.388,2.995,0.497,3.788c0.788,0.705,1.491,0.596,2.339-0.364c1.18-1.335,1.269-1.318,2.025,0.317
			c1.82,3.934,4.868,6.697,8.368,9.14c5.096,3.555,10.911,4.311,16.842,4.772c3.327,0.259,6.673,0.275,9.985,0.035
			c3.289-0.238,6.594-0.399,9.85-1.187c2.855-0.69,5.697-1.382,8.143-3.001c3.017-1.999,5.779-4.275,7.845-7.393
			c1.381-2.082,2.103-4.457,3.469-6.514c0.562-0.847,1.059-1.613,2.285-1.042C104.424,420.638,104.947,419.926,105.608,419.239z
			 M69.653,399.999c0.143,0.752,0.216,1.269,0.341,1.771c0.476,1.906,1.157,2.432,3.073,2.562c0.865,0.059,1.334-0.606,1.993-0.915
			c1.928-0.903,2.025-1.082,1.188-2.941c-1.263-2.803-4.176-3.064-6.291-0.999C69.746,399.683,69.635,399.933,69.653,399.999z
			 M61.618,401.769c-0.039-0.24-0.067-0.686-0.186-1.105c-0.263-0.924-2.065-2.144-2.672-1.718
			c-1.218,0.856-2.521,1.656-3.033,3.238c-0.34,1.052,0.04,1.862,0.729,2.475c0.669,0.594,1.503,1.112,2.502,0.872
			C60.464,405.169,61.633,403.573,61.618,401.769z" fill="#FBC900" fill-rule="evenodd"/>
		<path clip-rule="evenodd" d="M53.917,462.875c5.428,0,10.481,0.028,15.535-0.01
			c3.366-0.025,6.732-0.126,10.097-0.237c0.819-0.027,0.953,0.096,0.915,1.016c-0.082,2.031,0.094,4.081,0.292,6.11
			c0.084,0.868-0.203,1.006-0.953,1.047c-7.041,0.392-14.082,0.792-21.119,1.247c-1.552,0.1-3.099,0.377-4.631,0.663
			c-0.987,0.185-1.243-0.148-1.046-1.059c0.506-2.343,1.019-4.684,1.481-7.035C54.597,464.06,55.093,463.366,53.917,462.875z" fill="#D7012C" fill-rule="evenodd"/>
		<path clip-rule="evenodd" d="M50.656,370.674c1.316-0.083,2.874-0.036,4.402-0.442
			c1.623-0.431,1.208,1.032,1.396,1.737c0.234,0.883-0.631,0.537-1.035,0.6c-2.7,0.419-5.439,0.122-8.15,0.414
			c-0.373,0.04-1.145,0.426-1.145-0.336c0-0.694-0.239-1.712,0.942-1.913C48.182,370.545,49.302,370.671,50.656,370.674z" fill="#D7012C" fill-rule="evenodd"/>
		<path clip-rule="evenodd" d="M84.138,371.134c-1.242,0-2.484-0.011-3.727,0.006
			c-0.405,0.005-0.71-0.019-0.717-0.542c-0.006-0.466,0.136-0.804,0.635-0.846c2.696-0.226,5.392-0.445,8.089-0.653
			c0.79-0.061,0.611,0.592,0.668,1.018c0.083,0.618-0.164,1.002-0.858,0.997c-1.363-0.009-2.727-0.003-4.091-0.003
			C84.138,371.119,84.138,371.126,84.138,371.134z" fill="#D7012C" fill-rule="evenodd"/>
		<path clip-rule="evenodd" d="M306.083,445.885c0-7.661-0.001-15.323,0.002-22.984
			c0.001-0.57-0.202-1.199,0.821-1.18c7.137,0.137,14.285-0.308,21.409,0.251c4.775,0.375,8.891,2.29,12.315,5.805
			c3.47,3.563,4.894,7.877,5.338,12.638c0.502,5.378,0.035,10.685-1.936,15.735c-2.799,7.171-8.325,11.203-15.649,12.965
			c-3.373,0.812-6.82,0.931-10.276,0.911c-3.569-0.021-7.141-0.044-10.709,0.02c-1.024,0.019-1.353-0.192-1.344-1.295
			C306.109,461.128,306.083,453.507,306.083,445.885z M324.203,451.333c1.684,0,3.368-0.019,5.051,0.01
			c0.567,0.01,0.766-0.164,0.761-0.751c-0.024-3.127-0.019-6.254-0.004-9.381c0.003-0.517-0.078-0.818-0.706-0.814
			c-3.407,0.021-6.814,0.019-10.223,0.002c-0.524-0.003-0.69,0.188-0.688,0.7c0.016,3.167,0.02,6.334-0.004,9.501
			c-0.005,0.586,0.199,0.753,0.762,0.743C320.836,451.314,322.52,451.333,324.203,451.333z" fill="#FCFCFC" fill-rule="evenodd"/>
		<path clip-rule="evenodd" d="M431.763,448.378c-0.116,3.042,0.293,6.664-0.363,10.24
			c-0.82,4.473-2.997,8.146-6.717,10.812c-2.65,1.899-5.726,2.115-8.852,1.997c-6.816-0.257-11.324-4.925-12.603-11.254
			c-0.751-3.719-0.681-7.433,0.348-11.071c2.014-7.129,7.192-10.672,14.133-11.979c4.385-0.825,8.774-0.506,13.12,0.482
			c0.697,0.158,0.966,0.439,0.953,1.195C431.735,441.807,431.763,444.813,431.763,448.378z" fill="#FDFDFD" fill-rule="evenodd"/>
		<path clip-rule="evenodd" d="M31.066,468.38c-0.034-0.01-0.069-0.019-0.103-0.028
			c0.029,0.016,0.058,0.031,0.087,0.047L31.066,468.38z" fill="#290200" fill-rule="evenodd"/>
		<path clip-rule="evenodd" d="M172.929,498.495c-1.263-0.023-2.909,0.642-3.69-0.162
			c-0.717-0.737-0.185-2.364-0.195-3.598c-0.024-2.829-0.007-2.832,2.855-2.828c1.482,0.003,2.966-0.028,4.446,0.04
			c2.625,0.12,3.822,1.697,3.283,4.24c-0.25,1.176-1.344,2.144-2.859,2.284C175.499,498.589,174.21,498.495,172.929,498.495z" fill="#FCFCFC" fill-rule="evenodd"/>
		<path clip-rule="evenodd" d="M294.492,499.568c0-2.243,0.029-4.487-0.018-6.729
			c-0.016-0.741,0.198-0.977,0.942-0.948c1.64,0.063,3.286-0.016,4.924,0.069c2.603,0.136,4.288,1.423,5.048,3.878
			c0.753,2.434,0.749,4.902-0.056,7.328c-0.859,2.592-2.535,3.847-5.261,3.947c-1.6,0.06-3.205-0.014-4.806,0.033
			c-0.675,0.021-0.805-0.257-0.785-0.849c0.036-1.12,0.011-2.243,0.011-3.364C294.492,501.812,294.492,500.69,294.492,499.568z" fill="#FCFCFC" fill-rule="evenodd"/>
		<path clip-rule="evenodd" d="M248.001,492.552c0.713,2.13,1.333,3.903,1.894,5.695
			c0.26,0.83,0.854,1.49,1.059,2.354c0.122,0.515,0.022,0.636-0.464,0.633c-1.642-0.012-3.284-0.01-4.926,0
			c-0.451,0.003-0.69-0.099-0.5-0.617C246.008,498.041,246.942,495.462,248.001,492.552z" fill="#FCFCFC" fill-rule="evenodd"/>
		<path clip-rule="evenodd" d="M368.985,501.23c1.052-2.895,2.045-5.628,3.04-8.368
			c0.387,0.046,0.354,0.372,0.417,0.61c0.615,2.345,1.815,4.468,2.548,6.771c0.264,0.83,0.084,1.026-0.752,1.001
			C372.532,501.194,370.824,501.23,368.985,501.23z" fill="#FCFCFC" fill-rule="evenodd"/>
		<path clip-rule="evenodd" d="M153.281,498.736c-0.88,0-1.762-0.032-2.64,0.011
			c-0.61,0.028-0.849-0.149-0.835-0.799c0.039-1.76,0.032-3.521,0.003-5.28c-0.01-0.567,0.161-0.784,0.745-0.771
			c1.959,0.044,3.919,0.04,5.878,0.069c1.852,0.027,3.56,2.013,3.163,3.698c-0.381,1.62-1.236,2.848-3.316,3.016
			c-0.993,0.081-1.999,0.014-2.998,0.014C153.281,498.708,153.281,498.723,153.281,498.736z" fill="#FCFCFC" fill-rule="evenodd"/>
		<path clip-rule="evenodd" d="M194.09,492.504c0.948,2.843,1.764,5.348,2.628,7.835
			c0.218,0.629,0.27,0.934-0.565,0.905c-1.518-0.051-3.039-0.035-4.558-0.004c-0.651,0.014-0.913-0.14-0.614-0.813
			C192.086,497.939,193.139,495.43,194.09,492.504z" fill="#FCFCFC" fill-rule="evenodd"/>
		<path clip-rule="evenodd" d="M69.653,399.999c-0.018-0.066,0.093-0.316,0.305-0.522
			c2.115-2.065,5.027-1.804,6.291,0.999c0.837,1.859,0.74,2.038-1.188,2.941c-0.659,0.309-1.127,0.974-1.993,0.915
			c-1.916-0.13-2.598-0.655-3.073-2.562C69.869,401.268,69.796,400.751,69.653,399.999z" fill="#290200" fill-rule="evenodd"/>
		<path clip-rule="evenodd" d="M61.618,401.769c0.016,1.805-1.154,3.4-2.659,3.762
			c-0.999,0.24-1.833-0.278-2.502-0.872c-0.69-0.612-1.069-1.423-0.729-2.475c0.511-1.582,1.814-2.382,3.033-3.238
			c0.606-0.426,2.409,0.793,2.672,1.718C61.551,401.083,61.579,401.528,61.618,401.769z" fill="#290200" fill-rule="evenodd"/>
		<path clip-rule="evenodd" d="M324.203,451.333c-1.684,0-3.367-0.019-5.051,0.01
			c-0.563,0.01-0.767-0.157-0.762-0.743c0.023-3.167,0.02-6.334,0.004-9.501c-0.003-0.512,0.163-0.703,0.688-0.7
			c3.408,0.017,6.815,0.02,10.223-0.002c0.628-0.004,0.709,0.298,0.706,0.814c-0.015,3.127-0.021,6.254,0.004,9.381
			c0.005,0.587-0.193,0.761-0.761,0.751C327.571,451.314,325.887,451.333,324.203,451.333z" fill="#E5022A" fill-rule="evenodd"/>
	</g>
</g>
</svg>
